<?xml version="1.0" standalone="no"?>
<!DOCTYPE svg PUBLIC "-//W3C//DTD SVG 20010904//EN"
 "http://www.w3.org/TR/2001/REC-SVG-20010904/DTD/svg10.dtd">
<svg version="1.0" xmlns="http://www.w3.org/2000/svg"
 width="820.000000pt" height="820.000000pt" viewBox="0 0 820.000000 820.000000"
 preserveAspectRatio="xMidYMid meet">
<metadata>
Created by potrace 1.14, written by Peter Selinger 2001-2017
</metadata>
<g transform="translate(0.000000,820.000000) scale(0.100000,-0.100000)"
fill="#000000" stroke="none">
<path d="M5930 7138 c-188 -29 -330 -195 -330 -388 0 -119 59 -241 147 -305
23 -16 42 -36 42 -43 1 -11 -1218 -4534 -1222 -4538 -1 -1 -18 -8 -37 -17
l-36 -14 -1352 790 c-1056 618 -1352 795 -1352 810 0 110 -103 207 -220 207
-186 0 -286 -211 -169 -354 57 -68 171 -96 254 -62 l33 14 1348 -788 1348
-788 16 -58 c20 -74 40 -104 91 -140 48 -33 135 -44 194 -24 49 16 104 66 126
115 33 72 19 177 -31 230 -19 21 -15 39 590 2280 335 1243 614 2267 618 2275
5 9 32 18 63 23 30 4 81 20 114 37 112 54 183 150 211 280 13 62 13 78 -2 147
-43 208 -236 343 -444 311z m165 -64 c133 -37 236 -175 238 -319 2 -162 -114
-305 -276 -339 -37 -8 -76 -12 -86 -9 -16 4 -22 -3 -31 -39 -6 -23 -286 -1058
-621 -2299 -335 -1241 -609 -2262 -609 -2268 0 -7 14 -30 31 -51 82 -102 22
-253 -106 -268 -24 -2 -55 -2 -69 2 -61 15 -125 104 -126 172 0 31 -14 40
-1370 833 -754 440 -1378 801 -1388 801 -9 -1 -28 -7 -42 -15 -37 -21 -106
-18 -149 6 -116 65 -116 223 0 288 105 59 235 -14 247 -139 l4 -49 1371 -801
c972 -569 1377 -800 1391 -797 54 13 101 37 108 53 10 26 1238 4580 1238 4592
0 5 -22 24 -50 42 -30 20 -65 54 -89 90 -137 206 -26 473 219 526 59 12 86 10
165 -12z"/>
</g>
</svg>
